<?xml version="1.0" encoding="utf-8"?>
<!-- Generator: Adobe Illustrator 16.0.4, SVG Export Plug-In . SVG Version: 6.00 Build 0)  -->
<!DOCTYPE svg PUBLIC "-//W3C//DTD SVG 1.1//EN" "http://www.w3.org/Graphics/SVG/1.1/DTD/svg11.dtd">
<svg version="1.1" id="Layer_1" xmlns="http://www.w3.org/2000/svg" xmlns:xlink="http://www.w3.org/1999/xlink" x="0px" y="0px"
	 width="220px" height="59px" viewBox="-35 -9.5 220 59" enable-background="new -35 -9.5 220 59" xml:space="preserve">
<g>
	<g>
		<path fill="#55565A" d="M-29.245,30.642h2.102l4.58,9.43h-1.947l-0.986-2.164h-5.437l-0.999,2.164h-1.96L-29.245,30.642z
			 M-26.222,36.323l-1.973-4.205l-1.972,4.205H-26.222z"/>
		<path fill="#55565A" d="M-14.441,33.507c-0.298-0.844-1.064-1.568-3.309-1.568c-1.246,0-2.505,0.309-2.505,1.18
			c0,0.4,0.234,0.83,2.115,1.064l2.232,0.336c2.115,0.326,3.361,1.143,3.361,2.727c0,2.23-2.128,3.062-4.646,3.062
			c-4.048,0-5.034-2-5.255-2.713l1.778-0.559c0.337,0.688,1.038,1.688,3.53,1.688c1.505,0,2.75-0.492,2.75-1.311
			c0-0.609-0.701-1.012-2.05-1.18l-2.258-0.314c-2.181-0.297-3.4-1.246-3.4-2.684c0-2.83,3.672-2.83,4.4-2.83
			c4.06,0,4.761,1.881,4.994,2.533L-14.441,33.507z"/>
		<path fill="#55565A" d="M-3.719,33.507c-0.298-0.844-1.063-1.568-3.31-1.568c-1.245,0-2.503,0.309-2.503,1.18
			c0,0.4,0.233,0.83,2.115,1.064l2.231,0.336c2.115,0.326,3.361,1.143,3.361,2.727c0,2.23-2.128,3.062-4.645,3.062
			c-4.048,0-5.035-2-5.255-2.713l1.777-0.559c0.338,0.688,1.038,1.688,3.529,1.688c1.505,0,2.751-0.492,2.751-1.311
			c0-0.609-0.7-1.012-2.05-1.18l-2.258-0.314c-2.179-0.297-3.399-1.246-3.399-2.684c0-2.83,3.671-2.83,4.397-2.83
			c4.062,0,4.763,1.881,4.996,2.533L-3.719,33.507z"/>
		<path fill="#55565A" d="M9.474,36.026c0,3.035-1.934,4.281-5.009,4.281c-3.075,0-5.008-1.246-5.008-4.281v-5.385h1.842v5.252
			c0,1.559,0.558,2.83,3.166,2.83c2.609,0,3.167-1.271,3.167-2.83v-5.252h1.843V36.026z"/>
		<path fill="#55565A" d="M11.204,30.642h5.67c2.232,0,3.841,0.506,3.841,2.814c0,1.736-1.246,2.697-2.634,2.777l2.894,3.838h-2.271
			l-2.738-3.709h-2.919v3.709h-1.843V30.642z M16.603,34.833c1.505,0,2.271-0.223,2.271-1.34c0-1.102-0.766-1.322-2.271-1.322
			h-3.556v2.662H16.603z"/>
		<path fill="#55565A" d="M26.368,30.642h2.102l4.581,9.43h-1.947l-0.986-2.164h-5.437l-1,2.164h-1.958L26.368,30.642z
			 M29.391,36.323l-1.973-4.205l-1.972,4.205H29.391z"/>
		<path fill="#55565A" d="M34.028,30.642h1.947l6.306,6.811v-6.811h1.765v9.43h-1.687l-6.565-7.057v7.057h-1.765V30.642z"/>
		<path fill="#55565A" d="M56.066,36.714c-0.181,1.051-0.934,3.594-5.268,3.594c-2.984,0-5.333-1.662-5.333-5.102
			c0-2.748,1.727-4.801,5.477-4.801c4.216,0,4.84,2.738,4.982,3.246h-1.842c-0.104-0.326-0.831-1.662-3.036-1.662
			c-2.608,0-3.698,1.467-3.698,3.428c0,2.164,1.57,3.307,3.595,3.307c2.154,0,3.101-1.285,3.282-2.01H56.066z"/>
		<path fill="#55565A" d="M57.44,30.642h8.613v1.58h-6.771v2.193h5.696v1.584h-5.696v2.492h6.773v1.58H57.44V30.642z"/>
	</g>
	<g>
		<path fill="#55565A" d="M86.211,12.373c0,2.29-1.877,4.604-5.477,4.604h-0.633c-3.598,0-5.481-2.314-5.481-4.604v-12.61h-5.132
			v12.951c0,4.487,3.633,9.035,10.576,9.035h0.699c6.943,0,10.582-4.548,10.582-9.035V-0.237h-5.135V12.373z"/>
		<polygon fill="#55565A" points="94.631,4.569 102.104,4.569 102.104,21.22 107.16,21.22 107.16,4.569 114.58,4.569 114.58,-0.237 
			94.631,-0.237 		"/>
		<path fill="#55565A" d="M25.865-0.801c-7.057,0-11.797,4.533-11.797,11.283c0,6.64,4.854,11.279,11.797,11.279
			c6.954,0,11.805-4.64,11.805-11.279C37.67,3.732,32.924-0.801,25.865-0.801z M25.865,17.101c-3.189,0-6.603-1.741-6.603-6.62
			c0-3.901,2.716-6.625,6.603-6.625c3.195,0,6.606,1.742,6.606,6.625C32.471,14.441,29.818,17.101,25.865,17.101z"/>
		<path fill="#55565A" d="M134.475,12.375c0,2.29-1.881,4.604-5.48,4.604h-0.631c-3.598,0-5.482-2.315-5.482-4.604V-0.237h-5.133
			v12.953c0,4.487,3.635,9.035,10.578,9.035h0.697c6.943,0,10.584-4.548,10.584-9.035V-0.237h-5.133V12.375z"/>
		<path fill="#55565A" d="M53.274,21.099l7.334-11.613v11.722h5.244l0-20.731c0-0.392-0.315-0.713-0.708-0.713v0.001L61.14-0.236
			c-0.223,0-0.423,0.104-0.551,0.271c-0.003,0.007-0.014,0.015-0.018,0.022c-0.023,0.034-0.044,0.064-0.075,0.113l-7.222,11.638
			L46.052,0.169c-0.031-0.048-0.051-0.079-0.075-0.113c-0.003-0.008-0.014-0.015-0.018-0.022c-0.127-0.167-0.328-0.27-0.55-0.27
			h-4.005l0,0c-0.393,0-0.708,0.32-0.708,0.712V21.22h5.244V9.486L53.274,21.099z"/>
		<path fill="#55565A" d="M143.207,0.473c0-0.393,0.318-0.709,0.711-0.709h18.201V4.51h-13.914v3.529h11.189v4.747h-11.189v3.672
			h14.41v4.762H143.91c-0.393,0-0.703-0.311-0.703-0.702V0.47"/>
		<path fill="#55565A" d="M166.953,21.22c-0.393,0-0.701-0.311-0.701-0.702L166.25-0.237l5.115,0v16.695h12.729v4.762H166.953z"/>
		<path fill="#55565A" d="M-26.894,4.602c-0.715,0-1.299,0.55-1.299,1.264l0,15.344h-4.922l0.002-20.74
			c0-0.393,0.32-0.707,0.713-0.707l11.727,0c4.361,0,7.893,2.675,7.893,7.635c0,4.867-3.837,7.634-8.053,7.634l-0.005-0.002h-7.246
			l2.291-4.077c0.22-0.404,0.646-0.678,1.138-0.678h3.535c2.115,0,3.218-1.221,3.218-2.865c0-1.802-1.267-2.81-2.761-2.81
			L-26.894,4.602"/>
		<path fill="#55565A" d="M11.692,21.22H5.775l-3.397-5.871h-6.755v5.871h-5.069l0-20.747c0-0.393,0.32-0.709,0.712-0.709H3.193
			c4.369,0,8.251,2.487,8.251,7.878c0,3.099-1.55,5.453-3.808,6.748L11.692,21.22z M3.161,4.826h-7.538v5.802l7.537,0.001
			c1.661,0,3.208-0.756,3.208-2.902c0-1.893-1.253-2.902-3.209-2.902"/>
	</g>
</g>
</svg>
