<svg id="Calque_1" data-name="Calque 1" xmlns="http://www.w3.org/2000/svg" viewBox="0 0 842.97 269.66"><defs><style>.cls-1{fill:#fff;}</style></defs><path class="cls-1" d="M82.05,169.57h6.81l14.84,30.57H97.39l-3.19-7H76.58l-3.24,7H67ZM91.85,188l-6.4-13.63L79.06,188Z"/><path class="cls-1" d="M130,178.86c-1-2.73-3.45-5.08-10.73-5.08-4,0-8.12,1-8.12,3.82,0,1.3.76,2.69,6.86,3.46l7.23,1.08c6.86,1.06,10.89,3.71,10.89,8.84,0,7.23-6.89,9.92-15,9.92-13.12,0-16.32-6.48-17-8.79l5.76-1.81c1.09,2.23,3.36,5.47,11.44,5.47,4.88,0,8.91-1.6,8.91-4.25,0-2-2.27-3.28-6.64-3.82l-7.32-1c-7.07-1-11-4-11-8.7,0-9.17,11.9-9.17,14.26-9.17,13.16,0,15.43,6.1,16.19,8.21Z"/><path class="cls-1" d="M164.78,178.86c-1-2.73-3.45-5.08-10.73-5.08-4,0-8.11,1-8.11,3.82,0,1.3.75,2.69,6.85,3.46l7.23,1.08c6.86,1.06,10.9,3.71,10.9,8.84,0,7.23-6.9,9.92-15.06,9.92-13.12,0-16.32-6.48-17-8.79l5.76-1.81c1.1,2.23,3.37,5.47,11.44,5.47,4.88,0,8.91-1.6,8.91-4.25,0-2-2.27-3.28-6.64-3.82l-7.32-1c-7.06-1-11-4-11-8.7,0-9.17,11.9-9.17,14.25-9.17,13.17,0,15.44,6.1,16.19,8.21Z"/><path class="cls-1" d="M207.53,187c0,9.84-6.26,13.87-16.23,13.87s-16.23-4-16.23-13.87V169.57h6v17c0,5.05,1.81,9.17,10.26,9.17s10.26-4.12,10.26-9.17v-17h6Z"/><path class="cls-1" d="M213.14,169.57h18.38c7.23,0,12.45,1.64,12.45,9.12,0,5.64-4,8.75-8.54,9l9.38,12.44h-7.36l-8.87-12h-9.47v12h-6Zm17.5,13.59c4.88,0,7.36-.72,7.36-4.34s-2.48-4.29-7.36-4.29H219.11v8.63Z"/><path class="cls-1" d="M262.29,169.57h6.81l14.84,30.57h-6.3l-3.2-7H256.82l-3.24,7h-6.35Zm9.8,18.42-6.4-13.63L259.3,188Z"/><path class="cls-1" d="M287.11,169.57h6.31l20.44,22.08V169.57h5.72v30.57h-5.47l-21.28-22.87v22.87h-5.72Z"/><path class="cls-1" d="M358.54,189.25c-.59,3.41-3,11.65-17.07,11.65-9.68,0-17.29-5.38-17.29-16.53,0-8.91,5.59-15.56,17.75-15.56,13.67,0,15.68,8.88,16.15,10.52h-6c-.33-1.06-2.69-5.39-9.84-5.39-8.45,0-12,4.75-12,11.11,0,7,5.09,10.72,11.65,10.72,7,0,10.05-4.16,10.64-6.52Z"/><path class="cls-1" d="M363,169.57h27.92v5.13H369v7.11h18.47v5.13H369V195h22v5.13H363Z"/><path class="cls-1" d="M456.24,110.37c0,7.42-6.09,14.92-17.75,14.92h-2.05c-11.66,0-17.77-7.5-17.77-14.92V69.5H402v42c0,14.55,11.78,29.28,34.28,29.28h2.26c22.5,0,34.3-14.73,34.3-29.28v-42H456.24Z"/><polygon class="cls-1" points="483.52 85.08 507.74 85.08 507.74 139.04 524.13 139.04 524.13 85.08 548.18 85.08 548.18 69.5 483.52 69.5 483.52 85.08"/><path class="cls-1" d="M260.66,67.67c-22.87,0-38.24,14.69-38.24,36.57,0,21.52,15.73,36.55,38.24,36.55s38.26-15,38.26-36.55C298.92,82.36,283.54,67.67,260.66,67.67Zm0,58c-10.34,0-21.4-5.64-21.4-21.45,0-12.65,8.8-21.47,21.4-21.47,10.35,0,21.41,5.64,21.41,21.47C282.07,117.07,273.47,125.69,260.66,125.69Z"/><path class="cls-1" d="M612.66,110.38c0,7.42-6.1,14.92-17.76,14.92h-2c-11.66,0-17.77-7.5-17.77-14.92V69.5H558.45v42c0,14.54,11.78,29.28,34.28,29.28H595c22.5,0,34.3-14.74,34.3-29.28v-42H612.66Z"/><path class="cls-1" d="M349.49,138.65,373.26,101v38h17V71.81A2.3,2.3,0,0,0,388,69.5H375a2.23,2.23,0,0,0-1.78.88l-.06.07c-.08.11-.14.21-.24.37l-23.41,37.72L326.08,70.82c-.1-.16-.16-.26-.24-.37l-.06-.07A2.23,2.23,0,0,0,324,69.5H311a2.3,2.3,0,0,0-2.29,2.31V139h17V101Z"/><path class="cls-1" d="M641,71.8a2.3,2.3,0,0,1,2.3-2.3h59V84.88H657.16V96.32h36.26v15.39H657.16v11.9h46.7V139H643.24a2.25,2.25,0,0,1-2.28-2.28v-65"/><path class="cls-1" d="M717.92,139a2.25,2.25,0,0,1-2.27-2.28V69.5h16.58v54.11h41.25V139Z"/><path class="cls-1" d="M89.67,85.18a4.12,4.12,0,0,0-4.21,4.1V139H69.51V71.79a2.3,2.3,0,0,1,2.31-2.29h38c14.13,0,25.58,8.67,25.58,24.75C135.41,110,123,119,109.31,119H85.81l7.42-13.21a4.2,4.2,0,0,1,3.69-2.2h11.46c6.85,0,10.43-4,10.43-9.28,0-5.84-4.11-9.11-9-9.11H89.67"/><path class="cls-1" d="M214.72,139H195.55l-11-19H162.65v19H146.22V71.8a2.3,2.3,0,0,1,2.31-2.3h38.65c14.16,0,26.74,8.06,26.74,25.53,0,10-5,17.68-12.34,21.87ZM187.07,85.91H162.65v18.8h24.42c5.39,0,10.4-2.44,10.4-9.4,0-6.14-4.06-9.41-10.4-9.41"/></svg>